M48
; DRILL file {KiCad (6.0.11)} date Fri May 31 18:35:46 2024
; FORMAT={-:-/ absolute / inch / decimal}
; #@! TF.CreationDate,2024-05-31T18:35:46-03:00
; #@! TF.GenerationSoftware,Kicad,Pcbnew,(6.0.11)
; #@! TF.FileFunction,Plated,1,2,PTH
FMAT,2
INCH
; #@! TA.AperFunction,Plated,PTH,ComponentDrill
T1C0.0276
; #@! TA.AperFunction,Plated,PTH,ComponentDrill
T2C0.0299
; #@! TA.AperFunction,Plated,PTH,ComponentDrill
T3C0.0315
; #@! TA.AperFunction,Plated,PTH,ComponentDrill
T4C0.0354
; #@! TA.AperFunction,Plated,PTH,ComponentDrill
T5C0.0394
; #@! TA.AperFunction,Plated,PTH,ComponentDrill
T6C0.0433
; #@! TA.AperFunction,Plated,PTH,ComponentDrill
T7C0.0551
; #@! TA.AperFunction,Plated,PTH,ComponentDrill
T8C0.0598
%
G90
G05
T1
X4.3274Y-2.8421
X4.3274Y-3.0421
X4.3774Y-2.9421
X4.3774Y-3.1421
X4.4274Y-2.8421
X4.4274Y-3.0421
X4.4774Y-2.9421
X4.4774Y-3.1421
X4.5274Y-2.8421
X4.5274Y-3.0421
X4.5774Y-2.9421
X4.5774Y-3.1421
X4.6274Y-2.8421
X4.6274Y-3.0421
X4.6774Y-2.9421
X4.6774Y-3.1421
X4.7274Y-2.8421
X4.7274Y-3.0421
X4.7774Y-2.9421
X4.7774Y-3.1421
X4.8274Y-2.8421
X4.8274Y-3.0421
X4.9774Y-2.9421
X4.9774Y-3.1421
X5.0274Y-2.8421
X5.0274Y-3.0421
X5.0774Y-2.9421
X5.0774Y-3.1421
X5.1274Y-2.8421
X5.1274Y-3.0421
X5.1774Y-2.9421
X5.1774Y-3.1421
X5.2274Y-2.8421
X5.2274Y-3.0421
X5.2774Y-2.9421
X5.2774Y-3.1421
X5.3274Y-2.8421
X5.3274Y-3.0421
X5.3774Y-2.9421
X5.3774Y-3.1421
X5.4274Y-2.8421
X5.4274Y-3.0421
X5.4774Y-2.9421
X5.4774Y-3.1421
X5.5274Y-2.8421
X5.5274Y-3.0421
X5.5774Y-2.9421
X5.5774Y-3.1421
X5.6274Y-2.8421
X5.6274Y-3.0421
X5.6774Y-2.9421
X5.6774Y-3.1421
X5.7274Y-2.8421
X5.7274Y-3.0421
X5.7774Y-2.9421
X5.7774Y-3.1421
X5.8274Y-2.8421
X5.8274Y-3.0421
X5.8774Y-2.9421
X5.8774Y-3.1421
X5.9274Y-2.8421
X5.9274Y-3.0421
X5.9774Y-2.9421
X5.9774Y-3.1421
X6.0274Y-2.8421
X6.0274Y-3.0421
X6.0774Y-2.9421
X6.0774Y-3.1421
X6.1274Y-2.8421
X6.1274Y-3.0421
X6.1774Y-2.9421
X6.1774Y-3.1421
X6.2274Y-2.8421
X6.2274Y-3.0421
X6.2774Y-2.9421
X6.2774Y-3.1421
X6.3274Y-2.8421
X6.3274Y-3.0421
X6.3774Y-2.9421
X6.3774Y-3.1421
X6.4274Y-2.8421
X6.4274Y-3.0421
X6.4774Y-2.9421
X6.4774Y-3.1421
X6.5274Y-2.8421
X6.5274Y-3.0421
X6.5774Y-2.9421
X6.5774Y-3.1421
X6.6274Y-2.8421
X6.6274Y-3.0421
X6.6774Y-2.9421
X6.6774Y-3.1421
X6.7274Y-2.8421
X6.7274Y-3.0421
X6.7774Y-2.9421
X6.7774Y-3.1421
X6.8274Y-2.8421
X6.8274Y-3.0421
X6.8774Y-2.9421
X6.8774Y-3.1421
X6.9274Y-2.8421
X6.9274Y-3.0421
X6.9774Y-2.9421
X6.9774Y-3.1421
X7.0274Y-2.8421
X7.0274Y-3.0421
X7.0774Y-2.9421
X7.0774Y-3.1421
X7.1274Y-2.8421
X7.1274Y-3.0421
X7.1774Y-2.9421
X7.1774Y-3.1421
X7.2274Y-2.8421
X7.2274Y-3.0421
X7.2774Y-2.9421
X7.2774Y-3.1421
X7.3274Y-2.8421
X7.3274Y-3.0421
X7.3774Y-2.9421
X7.3774Y-3.1421
T2
X5.3937Y-4.8425
X5.4437Y-4.7425
X5.4937Y-4.8425
X5.5437Y-4.7425
X5.5937Y-4.8425
X5.6437Y-4.7425
X5.6937Y-4.8425
X5.7437Y-4.7425
X6.063Y-4.8425
X6.113Y-4.7425
X6.163Y-4.8425
X6.213Y-4.7425
X6.263Y-4.8425
X6.313Y-4.7425
X6.363Y-4.8425
X6.413Y-4.7425
T3
X4.2913Y-3.4606
X4.4882Y-3.4606
X4.8354Y-3.8976
X4.8354Y-4.1976
X4.9354Y-3.8976
X4.9354Y-4.1976
X5.0354Y-3.8976
X5.0354Y-4.1976
X5.1354Y-3.8976
X5.1354Y-4.1976
X5.2354Y-3.8976
X5.2354Y-4.1976
X5.3354Y-3.8976
X5.3354Y-4.1976
X5.3543Y-4.3543
X5.3543Y-4.4528
X5.4354Y-3.8976
X5.4354Y-4.1976
X5.5354Y-3.8976
X5.5354Y-4.1976
X5.5354Y-4.374
X5.5354Y-4.4528
X7.2047Y-4.3937
X7.2835Y-4.3937
T4
X6.7559Y-4.5787
X7.0559Y-4.5787
T5
X4.7244Y-4.9606
X4.7244Y-5.1575
X4.7244Y-5.3543
X4.8244Y-4.9606
X4.8244Y-5.1575
X4.8244Y-5.3543
X4.9244Y-4.9606
X4.9244Y-5.1575
X4.9244Y-5.3543
X5.0244Y-4.9606
X5.0244Y-5.1575
X5.0244Y-5.3543
X5.1535Y-4.3858
X5.5555Y-2.5984
X5.6555Y-2.5984
X5.7913Y-3.5969
X5.7913Y-4.1969
X5.8555Y-2.5984
X5.8913Y-3.5969
X5.8913Y-4.1969
X5.9555Y-2.5984
X5.9913Y-3.5969
X5.9913Y-4.1969
X6.0913Y-3.5969
X6.0913Y-4.1969
X6.1555Y-2.5984
X6.1913Y-3.5969
X6.1913Y-4.1969
X6.2555Y-2.5984
X6.2913Y-3.5969
X6.2913Y-4.1969
X6.3913Y-3.5969
X6.3913Y-4.1969
X6.4913Y-3.5969
X6.4913Y-4.1969
X7.5118Y-3.8827
X7.5118Y-3.9827
X7.5118Y-4.0827
X7.563Y-4.4016
X7.563Y-4.5197
X7.563Y-4.6378
X7.6118Y-3.8827
X7.6118Y-3.9827
X7.6118Y-4.0827
T6
X6.8071Y-4.4213
X6.9071Y-4.4213
X7.0071Y-4.4213
T7
X4.2126Y-4.0945
X4.2126Y-4.2945
X4.2126Y-4.4945
X4.2126Y-4.6945
X4.2126Y-4.8945
X4.2126Y-5.0945
T8
X6.9457Y-5.2362
X7.1457Y-5.2362
T5
G00X7.4409Y-4.9567
M15
G01X7.5197Y-4.9567
M16
G05
G00X7.4409Y-5.1929
M15
G01X7.5197Y-5.1929
M16
G05
G00X7.6654Y-5.1142
M15
G01X7.6654Y-5.0354
M16
G05
T0
M30
