M48
; DRILL file {KiCad (5.1.6)-1} date 08/26/20 21:28:33
; FORMAT={-:-/ absolute / metric / decimal}
; #@! TF.CreationDate,2020-08-26T21:28:33-03:00
; #@! TF.GenerationSoftware,Kicad,Pcbnew,(5.1.6)-1
; #@! TF.FileFunction,Plated,1,2,PTH
FMAT,2
METRIC
T1C0.700
T2C0.760
T3C0.800
T4C1.000
T5C1.100
T6C1.400
T7C1.500
T8C1.520
%
G90
G05
T1
X112.79Y-57.085
X112.79Y-59.625
X112.79Y-62.165
X112.79Y-64.705
X112.79Y-67.245
X112.79Y-69.785
X112.79Y-72.325
X112.79Y-74.865
X112.79Y-77.405
X112.79Y-79.945
X112.79Y-82.485
X112.79Y-85.025
X112.79Y-87.565
X112.79Y-90.105
X112.79Y-92.645
X112.79Y-95.185
X112.79Y-97.725
X112.79Y-100.265
X112.79Y-102.805
X112.79Y-105.345
X112.79Y-107.885
X112.79Y-110.425
X112.79Y-112.965
X112.79Y-115.505
X112.79Y-120.585
X112.79Y-123.125
X112.79Y-125.665
X112.79Y-128.205
X112.79Y-130.745
X112.79Y-133.285
X115.33Y-55.815
X115.33Y-58.355
X115.33Y-60.895
X115.33Y-63.435
X115.33Y-65.975
X115.33Y-68.515
X115.33Y-71.055
X115.33Y-73.595
X115.33Y-76.135
X115.33Y-78.675
X115.33Y-81.215
X115.33Y-83.755
X115.33Y-86.295
X115.33Y-88.835
X115.33Y-91.375
X115.33Y-93.915
X115.33Y-96.455
X115.33Y-98.995
X115.33Y-101.535
X115.33Y-104.075
X115.33Y-106.615
X115.33Y-109.155
X115.33Y-111.695
X115.33Y-114.235
X115.33Y-116.775
X115.33Y-121.855
X115.33Y-124.395
X115.33Y-126.935
X115.33Y-129.475
X115.33Y-132.015
X117.87Y-57.085
X117.87Y-59.625
X117.87Y-62.165
X117.87Y-64.705
X117.87Y-67.245
X117.87Y-69.785
X117.87Y-72.325
X117.87Y-74.865
X117.87Y-77.405
X117.87Y-79.945
X117.87Y-82.485
X117.87Y-85.025
X117.87Y-87.565
X117.87Y-90.105
X117.87Y-92.645
X117.87Y-95.185
X117.87Y-97.725
X117.87Y-100.265
X117.87Y-102.805
X117.87Y-105.345
X117.87Y-107.885
X117.87Y-110.425
X117.87Y-112.965
X117.87Y-115.505
X117.87Y-120.585
X117.87Y-123.125
X117.87Y-125.665
X117.87Y-128.205
X117.87Y-130.745
X117.87Y-133.285
X120.41Y-55.815
X120.41Y-58.355
X120.41Y-60.895
X120.41Y-63.435
X120.41Y-65.975
X120.41Y-68.515
X120.41Y-71.055
X120.41Y-73.595
X120.41Y-76.135
X120.41Y-78.675
X120.41Y-81.215
X120.41Y-83.755
X120.41Y-86.295
X120.41Y-88.835
X120.41Y-91.375
X120.41Y-93.915
X120.41Y-96.455
X120.41Y-98.995
X120.41Y-101.535
X120.41Y-104.075
X120.41Y-106.615
X120.41Y-109.155
X120.41Y-111.695
X120.41Y-114.235
X120.41Y-116.775
X120.41Y-121.855
X120.41Y-124.395
X120.41Y-126.935
X120.41Y-129.475
X120.41Y-132.015
T2
X161.06Y-80.31
X161.06Y-82.85
X161.06Y-85.39
X161.06Y-87.93
X163.6Y-81.58
X163.6Y-84.12
X163.6Y-86.66
X163.6Y-89.2
X161.06Y-97.31
X161.06Y-99.85
X161.06Y-102.39
X161.06Y-104.93
X163.6Y-98.58
X163.6Y-101.12
X163.6Y-103.66
X163.6Y-106.2
T3
X128.6Y-129.7
X128.6Y-134.7
X148.6Y-118.2
X148.6Y-120.2
T4
X130.14Y-83.2
X130.14Y-85.74
X130.14Y-88.28
X130.14Y-90.82
X130.14Y-93.36
X132.68Y-75.2
X132.68Y-77.74
X127.6Y-75.2
X127.6Y-77.74
X160.4Y-66.6
X160.4Y-69.14
X132.68Y-83.2
X132.68Y-85.74
X132.68Y-88.28
X132.68Y-90.82
X132.68Y-93.36
X137.194Y-53.752
X137.194Y-68.992
X139.734Y-53.752
X139.734Y-68.992
X142.274Y-53.752
X142.274Y-68.992
X144.814Y-53.752
X144.814Y-68.992
X147.354Y-53.752
X147.354Y-68.992
X149.894Y-53.752
X149.894Y-68.992
X152.434Y-53.752
X152.434Y-68.992
X154.974Y-53.752
X154.974Y-68.992
X127.6Y-83.06
X127.6Y-85.74
X127.6Y-88.28
X127.6Y-90.82
X127.6Y-93.36
X130.14Y-75.2
X130.14Y-77.74
T5
X148.6Y-125.62
X148.6Y-128.16
X148.6Y-130.7
T6
X154.6Y-123.04
X154.6Y-133.2
T7
X161.1Y-126.2
X161.1Y-129.2
X161.1Y-132.2
T8
X169.1Y-126.12
X169.1Y-131.2
T4
G00X160.72Y-119.056
M15
G01X160.72Y-117.056
M16
G05
G00X164.72Y-113.356
M15
G01X162.72Y-113.356
M16
G05
G00X166.72Y-119.056
M15
G01X166.72Y-117.056
M16
G05
T0
M30
